HIERARCHY
ROOT Hips
{
 OFFSET 0.000000 0.000000 0.000000
 CHANNELS 6 Xposition Yposition Zposition Yrotation Xrotation Zrotation
 JOINT Chest
 {
  OFFSET 0.000000 9.585900 0.002600
  CHANNELS 3 Yrotation Xrotation Zrotation
  JOINT Chest2
  {
   OFFSET 0.000000 9.601200 -0.005300
   CHANNELS 3 Yrotation Xrotation Zrotation
   JOINT Chest3
   {
    OFFSET 0.000000 9.561800 0.000000
    CHANNELS 3 Yrotation Xrotation Zrotation
    JOINT Chest4
    {
     OFFSET 0.000000 9.552100 0.000000
     CHANNELS 3 Yrotation Xrotation Zrotation
     JOINT Neck
     {
      OFFSET 0.000000 14.453000 0.000000
      CHANNELS 3 Yrotation Xrotation Zrotation
      JOINT Head
      {
       OFFSET 0.000000 8.936500 -0.011300
       CHANNELS 3 Yrotation Xrotation Zrotation
       End Site
       {
        OFFSET 0.000000 17.073600 -0.006000
       }
      }
     }
     JOINT RightCollar
     {
      OFFSET -2.921100 9.558500 0.000000
      CHANNELS 3 Yrotation Xrotation Zrotation
      JOINT RightShoulder
      {
       OFFSET -13.519700 0.000000 0.000000
       CHANNELS 3 Yrotation Xrotation Zrotation
       JOINT RightElbow
       {
        OFFSET 0.000000 -29.696600 0.000000
        CHANNELS 3 Yrotation Xrotation Zrotation
        JOINT RightWrist
        {
         OFFSET 0.000000 -24.004700 0.000000
         CHANNELS 3 Yrotation Xrotation Zrotation
         End Site
         {
          OFFSET 0.000000 -17.728500 0.000000
         }
        }
       }
      }
     }
     JOINT LeftCollar
     {
      OFFSET 2.921100 9.558500 0.000000
      CHANNELS 3 Yrotation Xrotation Zrotation
      JOINT LeftShoulder
      {
       OFFSET 13.519700 0.000000 0.000000
       CHANNELS 3 Yrotation Xrotation Zrotation
       JOINT LeftElbow
       {
        OFFSET 0.000000 -29.696600 0.000000
        CHANNELS 3 Yrotation Xrotation Zrotation
        JOINT LeftWrist
        {
         OFFSET 0.000000 -24.004700 0.000000
         CHANNELS 3 Yrotation Xrotation Zrotation
         End Site
         {
          OFFSET 0.000000 -17.728500 0.000000
         }
        }
       }
      }
     }
    }
   }
  }
 }
 JOINT RightHip
 {
  OFFSET -7.771700 -0.012900 -0.001300
  CHANNELS 3 Yrotation Xrotation Zrotation
  JOINT RightKnee
  {
   OFFSET 0.000000 -40.869800 0.001200
   CHANNELS 3 Yrotation Xrotation Zrotation
   JOINT RightAnkle
   {
    OFFSET 0.000000 -39.717900 0.002100
    CHANNELS 3 Yrotation Xrotation Zrotation
    JOINT RightToe
    {
     OFFSET 0.000000 -4.965400 11.033500
     CHANNELS 3 Yrotation Xrotation Zrotation
     End Site
     {
      OFFSET 0.000000 -1.423100 5.872300
     }
    }
   }
  }
 }
 JOINT LeftHip
 {
  OFFSET 7.771700 -0.012900 -0.001300
  CHANNELS 3 Yrotation Xrotation Zrotation
  JOINT LeftKnee
  {
   OFFSET 0.000000 -40.869800 0.001200
   CHANNELS 3 Yrotation Xrotation Zrotation
   JOINT LeftAnkle
   {
    OFFSET 0.000000 -39.717900 0.002100
    CHANNELS 3 Yrotation Xrotation Zrotation
    JOINT LeftToe
    {
     OFFSET 0.000000 -4.965400 11.033500
     CHANNELS 3 Yrotation Xrotation Zrotation
     End Site
     {
      OFFSET 0.000000 -1.423100 5.872300
     }
    }
   }
  }
 }
}
MOTION
Frames: 13
Frame Time: 0.008333
0.000000 85.388000 0.000000 0.000000 -5.767877 0.000000 0.000000 11.653817 0.000000 0.000000 -5.885947 0.000000 0.000000 -0.000000 0.000000 0.000000 -0.000000 0.000000 0.000000 12.528835 0.000000 0.000000 0.711642 0.000000 0.000000 -0.000000 0.000000 0.000000 0.000000 -90.000000 0.000000 -2.309062 0.000000 0.000000 2.309062 0.000000 0.000000 -0.000000 0.000000 0.000000 -0.000000 90.000000 0.000000 -2.309062 0.000000 0.000000 2.309062 0.000000 0.000000 8.520406 0.000000 0.000000 1.905762 0.000000 -0.000000 -4.658285 0.000000 0.000000 -0.000000 0.000000 0.000000 8.520406 0.000000 0.000000 1.905762 0.000000 -0.000000 -4.658285 0.000000 0.000000 -0.000000 0.000000
-114.469941 57.687456 102.683356 178.743623 -51.915116 -2.920560 5.062323 27.514118 4.461777 0.722360 4.991282 0.646397 1.176974 7.914911 1.072035 3.866751 22.342815 3.567209 -17.758180 20.043204 4.294101 -33.480367 4.375877 12.603377 -3.404093 4.990018 -1.182807 -9.322560 -14.473562 1.376485 -104.668064 -38.565773 103.878662 1.142987 -22.717578 -63.607520 -3.497249 4.502470 -0.366312 28.780236 -6.485171 -9.115776 78.324859 -22.395891 -87.276939 6.428925 -21.080972 37.458984 9.925755 -23.093339 -3.639211 -14.687773 61.876141 -12.160281 6.820046 31.871011 3.042175 -1.167538 -19.119223 7.223490 -10.784736 -20.430484 0.484915 25.492804 58.551739 19.268063 -14.406764 13.082205 -4.665437 0.074400 0.135363 0.076389
-114.473388 57.689807 102.683078 178.742523 -51.908587 -2.913568 5.063858 27.546288 4.471776 0.724324 4.998835 0.648933 1.175919 7.898142 1.063693 3.886657 22.382928 3.585780 -17.774411 19.948275 4.339195 -33.538353 4.222304 12.711826 -3.415030 4.981816 -1.180906 -9.321706 -14.462808 1.386129 -104.630717 -38.554187 103.868796 1.152629 -22.724064 -63.607514 -3.517131 4.450790 -0.378325 28.759639 -6.486779 -9.109532 78.327524 -22.408800 -87.277086 6.431506 -21.071014 37.457306 9.893195 -23.095991 -3.652162 -14.704882 61.870437 -12.185340 6.855651 31.867512 3.054119 -1.175153 -19.115994 7.203719 -10.783206 -20.430394 0.480357 25.480925 58.540248 19.250697 -14.403361 13.080941 -4.674690 0.074390 0.136134 0.078794
-114.477223 57.692396 102.682770 178.734846 -51.899063 -2.900958 5.078324 27.602045 4.496266 0.721297 4.979099 0.638371 1.173566 7.881541 1.056471 3.892212 22.388725 3.588265 -17.791003 19.885135 4.377335 -33.620168 4.066698 12.819082 -3.415375 5.005521 -1.172278 -9.317805 -14.449839 1.397212 -104.584362 -38.534119 103.849863 1.142435 -22.679580 -63.630396 -3.519736 4.457727 -0.375254 28.743139 -6.494924 -9.119256 78.329475 -22.420144 -87.289317 6.430892 -21.061647 37.470328 9.811337 -23.095947 -3.658058 -14.615208 61.860515 -12.151839 6.874055 31.849732 3.135788 -1.153321 -19.098585 7.106897 -10.779288 -20.435095 0.476046 25.474134 58.532253 19.238506 -14.401974 13.078542 -4.685610 0.075744 0.139881 0.088699
-114.482276 57.693345 102.683706 178.707284 -51.873443 -2.866272 5.100275 27.623141 4.505125 0.725983 4.999787 0.644558 1.189776 7.925570 1.068373 3.859908 22.312732 3.557430 -17.808384 19.835442 4.397009 -33.729643 3.907740 12.945020 -3.428412 5.027690 -1.162636 -9.298125 -14.437498 1.407978 -104.565253 -38.517380 103.852889 1.132750 -22.646467 -63.652221 -3.510246 4.511953 -0.355953 28.721338 -6.489505 -9.139205 78.334971 -22.428139 -87.336034 6.423268 -21.075031 37.495839 9.783826 -23.115605 -3.673560 -14.552471 61.855845 -12.126445 6.880498 31.836889 3.155928 -1.149691 -19.085203 7.083514 -10.764593 -20.456106 0.463266 25.477054 58.519769 19.235801 -14.391399 13.073860 -4.693236 0.074895 0.141150 0.086984
-114.488160 57.696635 102.682588 178.687165 -51.862466 -2.831437 5.114970 27.650267 4.503202 0.723209 4.984710 0.638698 1.200130 7.958430 1.076285 3.897739 22.372603 3.579509 -17.882422 19.680297 4.445831 -33.843664 3.758398 13.031205 -3.474550 4.962762 -1.160609 -9.286494 -14.441191 1.418979 -104.591050 -38.515274 103.890544 1.100587 -22.590003 -63.683136 -3.544243 4.436662 -0.351921 28.708642 -6.490194 -9.153570 78.328999 -22.450775 -87.332927 6.463014 -21.082438 37.467467 9.754005 -23.120332 -3.692818 -14.559928 61.846548 -12.159892 6.912370 31.832917 3.166082 -1.153475 -19.080208 7.067419 -10.747292 -20.453690 0.437499 25.464236 58.493328 19.222763 -14.391475 13.064770 -4.709022 0.066204 0.151200 0.088669
-114.491248 57.699317 102.681904 178.678253 -51.843727 -2.820073 5.122982 27.650282 4.506276 0.729439 5.010304 0.646750 1.206314 7.969513 1.075450 3.916130 22.399587 3.586060 -17.950765 19.562392 4.484747 -33.965609 3.615456 13.111837 -3.499359 4.924725 -1.150723 -9.289831 -14.471928 1.420860 -104.368754 -38.438060 103.711543 1.144948 -22.674846 -63.668284 -3.558870 4.397841 -0.341341 28.705582 -6.476016 -9.160160 78.320287 -22.473734 -87.345171 6.480978 -21.085260 37.458764 9.712810 -23.138067 -3.697721 -14.606881 61.841484 -12.226925 6.948333 31.822922 3.212544 -1.130997 -19.074656 7.004360 -10.742719 -20.470014 0.435086 25.465295 58.488334 19.222295 -14.393601 13.066465 -4.713129 0.064594 0.138174 0.070616
-114.494978 57.701458 102.681176 178.670784 -51.819856 -2.802679 5.126825 27.646163 4.501128 0.737855 5.036541 0.654154 1.210078 7.977729 1.073392 3.926008 22.409017 3.585752 -18.011075 19.473801 4.510751 -34.097953 3.479351 13.195412 -3.516061 4.905723 -1.141182 -9.278492 -14.404586 1.455342 -104.299602 -38.374749 103.723092 1.165157 -22.714705 -63.671992 -3.564043 4.380220 -0.327731 28.710439 -6.449355 -9.160248 78.312672 -22.469107 -87.396679 6.417722 -21.091322 37.521450 9.686149 -23.160266 -3.709875 -14.587582 61.842939 -12.235745 6.956350 31.820694 3.251115 -1.121913 -19.075575 6.963783 -10.739439 -20.486840 0.425126 25.464461 58.468411 19.222115 -14.408581 13.072811 -4.729157 0.074462 0.135046 0.069010
-114.497028 57.704126 102.679675 178.655175 -51.799575 -2.784717 5.146198 27.665732 4.510014 0.740739 5.042432 0.654293 1.205043 7.957351 1.067867 3.947917 22.441592 3.590922 -18.072027 19.391635 4.532829 -34.229487 3.353779 13.270545 -3.530889 4.926022 -1.124270 -9.289190 -14.435677 1.471066 -104.188922 -38.309607 103.680864 1.170088 -22.732915 -63.683927 -3.579380 4.343646 -0.317653 28.725819 -6.415998 -9.151753 78.299472 -22.468608 -87.431997 6.395347 -21.086895 37.543905 9.686286 -23.179418 -3.719070 -14.578462 61.843799 -12.237362 6.951955 31.825394 3.276176 -1.108644 -19.081831 6.935424 -10.737027 -20.498097 0.422155 25.472552 58.452435 19.226384 -14.417066 13.068004 -4.740707 0.082364 0.138611 0.067378
-114.499347 57.706342 102.677947 178.645099 -51.776149 -2.764952 5.159319 27.677307 4.512931 0.743152 5.048131 0.654058 1.199241 7.941180 1.061957 3.970006 22.473009 3.594992 -18.121154 19.320209 4.553494 -34.363069 3.235235 13.344083 -3.552053 4.924334 -1.111759 -9.303105 -14.405822 1.507650 -104.096553 -38.248728 103.691615 1.174405 -22.749305 -63.690901 -3.578636 4.344180 -0.291070 28.732488 -6.404679 -9.171059 78.272990 -22.504039 -87.417117 6.433488 -21.081835 37.513008 9.652587 -23.202571 -3.724674 -14.567855 61.843664 -12.267521 6.978897 31.826590 3.314035 -1.120942 -19.085403 6.910457 -10.731858 -20.519161 0.413597 25.477123 58.445327 19.228513 -14.419549 13.070708 -4.743496 0.087120 0.134192 0.063086
-114.502520 57.708292 102.675767 178.622156 -51.752285 -2.725416 5.187963 27.714839 4.518878 0.745201 5.047187 0.650899 1.213459 7.974704 1.065976 3.940104 22.406962 3.576336 -18.166577 19.275052 4.561378 -34.477319 3.128366 13.407543 -3.564384 4.917826 -1.105606 -9.314927 -14.341261 1.545251 -104.004835 -38.189162 103.710817 1.174093 -22.760901 -63.691741 -3.562814 4.376173 -0.263901 28.740705 -6.391670 -9.191884 78.250932 -22.508937 -87.436879 6.438724 -21.079407 37.513222 9.633983 -23.230941 -3.736482 -14.646042 61.843136 -12.384860 7.051635 31.825996 3.350917 -1.127550 -19.092843 6.894200 -10.715213 -20.538114 0.396646 25.475666 58.434617 19.221627 -14.424748 13.068803 -4.744352 0.091564 0.135446 0.059570
-114.503857 57.711728 102.671969 178.593803 -51.741091 -2.688224 5.211552 27.745184 4.520531 0.740711 5.025290 0.643236 1.221172 7.997955 1.068833 3.937058 22.391506 3.570221 -18.215769 19.227277 4.568440 -34.568623 3.033026 13.460896 -3.575051 4.911858 -1.099177 -9.326055 -14.293405 1.574414 -103.904911 -38.126847 103.715025 1.172066 -22.770217 -63.692517 -3.547095 4.401066 -0.242104 28.733999 -6.401264 -9.217229 78.235479 -22.524731 -87.418921 6.467841 -21.080042 37.483847 9.613157 -23.245248 -3.737485 -14.663456 61.844426 -12.444428 7.086939 31.828884 3.374273 -1.129790 -19.101548 6.881622 -10.691773 -20.535668 0.382252 25.466704 58.417182 19.212444 -14.431591 13.055309 -4.747616 0.097490 0.147717 0.057621
-114.503110 57.714808 102.668039 178.579857 -51.728470 -2.671122 5.220827 27.748652 4.519067 0.747158 5.046658 0.648420 1.223019 7.999846 1.066378 3.947182 22.401840 3.568630 -18.254767 19.163586 4.585678 -34.651521 2.943190 13.514376 -3.595525 4.900188 -1.089905 -9.337747 -14.262104 1.604677 -103.809991 -38.068967 103.729513 1.170184 -22.773304 -63.694354 -3.541409 4.401656 -0.217769 28.728444 -6.407283 -9.241184 78.223306 -22.528679 -87.412739 6.465926 -21.080874 37.493649 9.554642 -23.270320 -3.716834 -14.645180 61.852741 -12.494268 7.107190 31.857963 3.411273 -1.125313 -19.134926 6.852861 -10.683638 -20.543067 0.378201 25.468055 58.412040 19.215543 -14.435475 13.052991 -4.751896 0.100350 0.146728 0.056486
